<svg width="22" height="126" viewBox="0 0 22 126" fill="none" xmlns="http://www.w3.org/2000/svg">
<g id="social/icons">
<path id="instagram/icon" fill-rule="evenodd" clip-rule="evenodd" d="M0.632402 107.168C0 108.409 0 110.034 0 113.284V116.716C0 119.966 0 121.591 0.632402 122.832C1.18868 123.924 2.0763 124.811 3.16805 125.368C4.40921 126 6.03398 126 9.28352 126H12.7165C15.966 126 17.5908 126 18.8319 125.368C19.9237 124.811 20.8113 123.924 21.3676 122.832C22 121.591 22 119.966 22 116.716V113.284C22 110.034 22 108.409 21.3676 107.168C20.8113 106.076 19.9237 105.189 18.8319 104.632C17.5908 104 15.966 104 12.7165 104H9.28352C6.03398 104 4.40921 104 3.16805 104.632C2.0763 105.189 1.18868 106.076 0.632402 107.168ZM11 118.929C13.1697 118.929 14.9286 117.17 14.9286 115C14.9286 112.83 13.1697 111.071 11 111.071C8.83031 111.071 7.07143 112.83 7.07143 115C7.07143 117.17 8.83031 118.929 11 118.929ZM13.3571 115C13.3571 116.302 12.3018 117.357 11 117.357C9.69819 117.357 8.64286 116.302 8.64286 115C8.64286 113.698 9.69819 112.643 11 112.643C12.3018 112.643 13.3571 113.698 13.3571 115ZM3.65668 109.717C3.14286 110.725 3.14286 112.045 3.14286 114.686V115.314C3.14286 117.955 3.14286 119.275 3.65668 120.283C4.10866 121.17 4.82985 121.891 5.7169 122.343C6.72534 122.857 8.04547 122.857 10.6857 122.857H11.3143C13.9545 122.857 15.2747 122.857 16.2831 122.343C17.1701 121.891 17.8913 121.17 18.3433 120.283C18.8571 119.275 18.8571 117.955 18.8571 115.314V114.686C18.8571 112.045 18.8571 110.725 18.3433 109.717C17.8913 108.83 17.1701 108.109 16.2831 107.657C15.2747 107.143 13.9545 107.143 11.3143 107.143H10.6857C8.04547 107.143 6.72534 107.143 5.7169 107.657C4.82985 108.109 4.10866 108.83 3.65668 109.717ZM10.6857 108.714H11.3143C12.6603 108.714 13.5754 108.716 14.2827 108.773C14.9716 108.83 15.3239 108.932 15.5697 109.057C16.1611 109.358 16.6418 109.839 16.9432 110.43C17.0684 110.676 17.1704 111.028 17.2267 111.717C17.2845 112.425 17.2857 113.34 17.2857 114.686V115.314C17.2857 116.66 17.2845 117.575 17.2267 118.283C17.1704 118.972 17.0684 119.324 16.9432 119.57C16.6418 120.161 16.1611 120.642 15.5697 120.943C15.3239 121.068 14.9716 121.17 14.2827 121.227C13.5754 121.284 12.6603 121.286 11.3143 121.286H10.6857C9.33966 121.286 8.42463 121.284 7.71735 121.227C7.02841 121.17 6.67609 121.068 6.43032 120.943C5.83895 120.642 5.35815 120.161 5.05684 119.57C4.93161 119.324 4.82958 118.972 4.77329 118.283C4.71551 117.575 4.71429 116.66 4.71429 115.314V114.686C4.71429 113.34 4.71551 112.425 4.77329 111.717C4.82958 111.028 4.93161 110.676 5.05684 110.43C5.35815 109.839 5.83895 109.358 6.43032 109.057C6.67609 108.932 7.02841 108.83 7.71735 108.773C8.42463 108.716 9.33966 108.714 10.6857 108.714ZM16.5 110.679C16.5 111.329 15.9723 111.857 15.3214 111.857C14.6705 111.857 14.1429 111.329 14.1429 110.679C14.1429 110.028 14.6705 109.5 15.3214 109.5C15.9723 109.5 16.5 110.028 16.5 110.679Z" fill="#FDFDFD"/>
<path id="vk/icon" fill-rule="evenodd" clip-rule="evenodd" d="M9.28352 52H12.7165C15.966 52 17.5908 52 18.8319 52.6324C19.9237 53.1887 20.8113 54.0763 21.3676 55.1681C22 56.4092 22 58.034 22 61.2835V64.7165C22 67.966 22 69.5908 21.3676 70.8319C20.8113 71.9237 19.9237 72.8113 18.8319 73.3676C17.5908 74 15.966 74 12.7165 74H9.28352C6.03398 74 4.40921 74 3.16806 73.3676C2.0763 72.8113 1.18868 71.9237 0.632402 70.8319C0 69.5908 0 67.966 0 64.7165V61.2835C0 58.034 0 56.4092 0.632402 55.1681C1.18868 54.0763 2.0763 53.1887 3.16806 52.6324C4.40921 52 6.03398 52 9.28352 52ZM16.3251 64.1362C16.2326 64.3718 16.2705 64.6043 16.4398 64.8339C16.6556 65.0762 16.8944 65.3226 17.1359 65.5717C17.8503 66.3088 18.5873 67.069 18.8154 67.8138C18.8958 68.2784 18.513 68.4513 18.1244 68.4513L16.0311 68.4857C15.9001 68.5143 15.7475 68.5 15.5733 68.4426C14.97 68.2441 14.5759 67.7682 14.1785 67.2883C13.9235 66.9804 13.6671 66.6707 13.3531 66.4317C13.1967 66.3125 13.0079 66.2313 12.8258 66.3282C12.4145 66.5443 12.4041 66.9601 12.3935 67.3812C12.3855 67.6995 12.3774 68.0209 12.1962 68.2614C11.9568 68.527 11.4927 68.4933 11.114 68.4658C11.0078 68.4581 10.9083 68.4509 10.8224 68.4509C6.90562 68.5914 4.35192 62.9767 3.18496 60.0799C3.04537 59.6886 3.26547 59.4943 3.6593 59.4943L5.89983 59.4771C6.1393 59.519 6.36658 59.6606 6.45585 59.9077C6.79134 60.7283 8.01256 63.6886 8.76989 63.6886C9.52723 63.6886 9.33773 60.6722 9.08059 60.1059C8.94429 59.9108 8.7127 59.7873 8.38557 59.7357C8.31471 59.7243 8.3284 59.6554 8.42655 59.529C8.7699 59.087 10.8742 58.9563 11.7956 59.1759C11.9777 59.2241 12.1558 59.3096 12.2371 59.4989C12.4214 59.9308 12.3791 60.6581 12.3363 61.3943C12.2832 62.3068 12.2293 63.2331 12.6048 63.6285C12.7498 63.6664 12.8292 63.6708 12.9565 63.5682C13.924 62.5926 14.5841 61.0746 15.1236 59.8307C15.1929 59.6478 15.3037 59.5579 15.475 59.5162C15.773 59.5162 16.0954 59.5176 16.4279 59.519C17.1247 59.5218 17.8656 59.5249 18.517 59.5162C19.5248 59.5162 18.0665 61.5833 17.0835 62.9766C16.7006 63.5195 16.3898 63.96 16.3251 64.1362Z" fill="#FDFDFD"/>
<path id="facebook/icon" fill-rule="evenodd" clip-rule="evenodd" d="M11 22C17.0751 22 22 17.0751 22 11C22 4.92487 17.0751 0 11 0C4.92487 0 0 4.92487 0 11C0 16.4216 3.92234 20.9272 9.08416 21.8337V21.8699C9.64599 21.956 10.2208 22 10.8063 22C10.8389 22 10.8715 21.9999 10.904 21.9996C10.936 21.9999 10.968 22 11 22ZM10.904 21.9996C11.4558 21.995 11.9979 21.9512 12.5284 21.8699V14.3641H15.0965L15.5851 11.2594H12.5284V9.24549C12.5284 8.39591 12.9546 7.56727 14.3237 7.56727H15.7143V4.92406C15.7143 4.92406 14.4528 4.71429 13.2474 4.71429C10.7288 4.71429 9.08416 6.2016 9.08416 8.89306V11.2594H6.28571V14.3641H9.08416V21.8337C9.67585 21.9377 10.2838 21.9943 10.904 21.9996Z" fill="#FDFDFD"/>
</g>
</svg>
